<mxfile host="app.diagrams.net" modified="2023-05-02T14:59:28.625Z" agent="Mozilla/5.0 (Windows NT 10.0; Win64; x64) AppleWebKit/537.36 (KHTML, like Gecko) Chrome/112.0.0.0 Safari/537.36" etag="AddwVAo4rQjKDrayuIEx" version="21.2.3" type="github">
  <diagram name="Page-1" id="5f0bae14-7c28-e335-631c-24af17079c00">
    <mxGraphModel dx="1562" dy="865" grid="1" gridSize="10" guides="1" tooltips="1" connect="1" arrows="1" fold="1" page="1" pageScale="1" pageWidth="1100" pageHeight="850" background="none" math="0" shadow="0">
      <root>
        <mxCell id="0" />
        <mxCell id="1" parent="0" />
        <mxCell id="SS03M6CejXD36-EVWh4s-9" value="" style="rounded=0;whiteSpace=wrap;html=1;glass=0;fillColor=none;dashed=1;dashPattern=12 12;" parent="1" vertex="1">
          <mxGeometry x="680" y="210" width="150" height="120" as="geometry" />
        </mxCell>
        <mxCell id="SS03M6CejXD36-EVWh4s-22" value="" style="rounded=0;whiteSpace=wrap;html=1;glass=0;fillColor=none;dashed=1;dashPattern=12 12;" parent="1" vertex="1">
          <mxGeometry x="730" y="405" width="150" height="345" as="geometry" />
        </mxCell>
        <mxCell id="SS03M6CejXD36-EVWh4s-6" value="" style="rounded=0;whiteSpace=wrap;html=1;glass=0;fillColor=none;dashed=1;dashPattern=12 12;" parent="1" vertex="1">
          <mxGeometry x="142.5" y="210" width="280" height="120" as="geometry" />
        </mxCell>
        <mxCell id="SS03M6CejXD36-EVWh4s-1" value="Oculus Quest 2&lt;br&gt;&lt;font style=&quot;font-size: 9px;&quot;&gt;[Component: Hardware]&lt;/font&gt;" style="rounded=0;whiteSpace=wrap;html=1;" parent="1" vertex="1">
          <mxGeometry x="695" y="240" width="120" height="60" as="geometry" />
        </mxCell>
        <mxCell id="SS03M6CejXD36-EVWh4s-2" value="OculusXR Plugin&lt;br&gt;&lt;font style=&quot;font-size: 9px;&quot;&gt;[Container: framework]&lt;/font&gt;" style="rounded=0;whiteSpace=wrap;html=1;" parent="1" vertex="1">
          <mxGeometry x="152.5" y="240" width="120" height="60" as="geometry" />
        </mxCell>
        <mxCell id="SS03M6CejXD36-EVWh4s-3" value="OVRPlugin&lt;br&gt;&lt;font style=&quot;font-size: 9px;&quot;&gt;[Container: framework]&lt;/font&gt;" style="rounded=0;whiteSpace=wrap;html=1;" parent="1" vertex="1">
          <mxGeometry x="292.5" y="240" width="120" height="60" as="geometry" />
        </mxCell>
        <mxCell id="SS03M6CejXD36-EVWh4s-4" value="Scener&lt;br&gt;&lt;font style=&quot;font-size: 9px;&quot;&gt;[Container: .unityscene]&lt;/font&gt;" style="rounded=0;whiteSpace=wrap;html=1;" parent="1" vertex="1">
          <mxGeometry x="745" y="505" width="120" height="60" as="geometry" />
        </mxCell>
        <mxCell id="SS03M6CejXD36-EVWh4s-7" value="Oculus Integrering" style="text;html=1;align=center;verticalAlign=middle;resizable=0;points=[];autosize=1;strokeColor=none;fillColor=none;" parent="1" vertex="1">
          <mxGeometry x="132.5" y="180" width="120" height="30" as="geometry" />
        </mxCell>
        <mxCell id="SS03M6CejXD36-EVWh4s-8" value="Meta XR runtime" style="text;html=1;align=center;verticalAlign=middle;resizable=0;points=[];autosize=1;strokeColor=none;fillColor=none;" parent="1" vertex="1">
          <mxGeometry x="670" y="180" width="110" height="30" as="geometry" />
        </mxCell>
        <mxCell id="SS03M6CejXD36-EVWh4s-11" value="Actor" style="shape=umlActor;verticalLabelPosition=bottom;verticalAlign=top;html=1;outlineConnect=0;" parent="1" vertex="1">
          <mxGeometry x="1020" y="255" width="30" height="60" as="geometry" />
        </mxCell>
        <mxCell id="SS03M6CejXD36-EVWh4s-15" value="" style="rounded=0;whiteSpace=wrap;html=1;glass=0;fillColor=none;dashed=1;dashPattern=12 12;" parent="1" vertex="1">
          <mxGeometry x="55" y="500" width="470" height="120" as="geometry" />
        </mxCell>
        <mxCell id="SS03M6CejXD36-EVWh4s-16" value="Spelmotor" style="text;html=1;align=center;verticalAlign=middle;resizable=0;points=[];autosize=1;strokeColor=none;fillColor=none;" parent="1" vertex="1">
          <mxGeometry x="40" y="470" width="80" height="30" as="geometry" />
        </mxCell>
        <mxCell id="SS03M6CejXD36-EVWh4s-18" value="Rendrering&lt;br&gt;&lt;font style=&quot;font-size: 9px;&quot;&gt;[Container: Unity Engine]&lt;/font&gt;" style="rounded=0;whiteSpace=wrap;html=1;" parent="1" vertex="1">
          <mxGeometry x="75" y="530" width="120" height="60" as="geometry" />
        </mxCell>
        <mxCell id="SS03M6CejXD36-EVWh4s-19" value="Ljudsystem&lt;br&gt;&lt;font style=&quot;font-size: 9px;&quot;&gt;[Container: Unity Engine]&lt;/font&gt;" style="rounded=0;whiteSpace=wrap;html=1;" parent="1" vertex="1">
          <mxGeometry x="230" y="530" width="120" height="60" as="geometry" />
        </mxCell>
        <mxCell id="SS03M6CejXD36-EVWh4s-20" value="Beräkning&lt;br&gt;&lt;font style=&quot;font-size: 9px;&quot;&gt;[Container: Unity Engine]&lt;br&gt;Script kompilering, fysik, mm.&lt;br&gt;&lt;/font&gt;" style="rounded=0;whiteSpace=wrap;html=1;" parent="1" vertex="1">
          <mxGeometry x="385" y="530" width="120" height="60" as="geometry" />
        </mxCell>
        <mxCell id="SS03M6CejXD36-EVWh4s-21" value="Scripts&lt;br&gt;&lt;font style=&quot;font-size: 9px;&quot;&gt;[Container: C#]&lt;/font&gt;" style="rounded=0;whiteSpace=wrap;html=1;" parent="1" vertex="1">
          <mxGeometry x="745" y="425" width="120" height="60" as="geometry" />
        </mxCell>
        <mxCell id="SS03M6CejXD36-EVWh4s-23" value="Prefabs / Modeller&lt;br&gt;&lt;font style=&quot;font-size: 9px;&quot;&gt;[Container: .fbx, .prefab]&lt;/font&gt;" style="rounded=0;whiteSpace=wrap;html=1;" parent="1" vertex="1">
          <mxGeometry x="745" y="585" width="120" height="60" as="geometry" />
        </mxCell>
        <mxCell id="SS03M6CejXD36-EVWh4s-24" value="Material / shaders&lt;br&gt;&lt;font style=&quot;font-size: 9px;&quot;&gt;[Container: .GLSL]&lt;/font&gt;" style="rounded=0;whiteSpace=wrap;html=1;" parent="1" vertex="1">
          <mxGeometry x="745" y="665" width="120" height="60" as="geometry" />
        </mxCell>
        <mxCell id="SS03M6CejXD36-EVWh4s-25" value="Spel kontext" style="text;html=1;align=center;verticalAlign=middle;resizable=0;points=[];autosize=1;strokeColor=none;fillColor=none;" parent="1" vertex="1">
          <mxGeometry x="720" y="375" width="90" height="30" as="geometry" />
        </mxCell>
        <mxCell id="elAHmINIhqVhR2WaFn2l-1" value="" style="endArrow=classic;html=1;rounded=0;exitX=0.016;exitY=1.046;exitDx=0;exitDy=0;exitPerimeter=0;entryX=0.997;entryY=1.063;entryDx=0;entryDy=0;entryPerimeter=0;" edge="1" parent="1" source="elAHmINIhqVhR2WaFn2l-2" target="elAHmINIhqVhR2WaFn2l-2">
          <mxGeometry width="50" height="50" relative="1" as="geometry">
            <mxPoint x="530" y="537" as="sourcePoint" />
            <mxPoint x="730" y="537" as="targetPoint" />
          </mxGeometry>
        </mxCell>
        <mxCell id="elAHmINIhqVhR2WaFn2l-2" value="Information om hur spel-kontexten&lt;br&gt;ska uppdateras" style="text;html=1;align=center;verticalAlign=middle;resizable=0;points=[];autosize=1;strokeColor=none;fillColor=none;" vertex="1" parent="1">
          <mxGeometry x="520" y="490" width="210" height="40" as="geometry" />
        </mxCell>
        <mxCell id="elAHmINIhqVhR2WaFn2l-5" value="Information om vad spelmotorn&lt;br&gt;ska bearbeta" style="text;html=1;align=center;verticalAlign=middle;resizable=0;points=[];autosize=1;strokeColor=none;fillColor=none;" vertex="1" parent="1">
          <mxGeometry x="530" y="595" width="190" height="40" as="geometry" />
        </mxCell>
        <mxCell id="elAHmINIhqVhR2WaFn2l-7" value="" style="endArrow=classic;html=1;rounded=0;exitX=-0.018;exitY=0.557;exitDx=0;exitDy=0;exitPerimeter=0;entryX=0.999;entryY=0.821;entryDx=0;entryDy=0;entryPerimeter=0;" edge="1" parent="1" source="SS03M6CejXD36-EVWh4s-22" target="SS03M6CejXD36-EVWh4s-15">
          <mxGeometry width="50" height="50" relative="1" as="geometry">
            <mxPoint x="460" y="620" as="sourcePoint" />
            <mxPoint x="510" y="570" as="targetPoint" />
          </mxGeometry>
        </mxCell>
        <mxCell id="elAHmINIhqVhR2WaFn2l-11" value="" style="endArrow=classic;html=1;rounded=0;entryX=0.139;entryY=1.026;entryDx=0;entryDy=0;entryPerimeter=0;" edge="1" parent="1" source="elAHmINIhqVhR2WaFn2l-12" target="SS03M6CejXD36-EVWh4s-6">
          <mxGeometry width="50" height="50" relative="1" as="geometry">
            <mxPoint x="180" y="500" as="sourcePoint" />
            <mxPoint x="230" y="450" as="targetPoint" />
          </mxGeometry>
        </mxCell>
        <mxCell id="elAHmINIhqVhR2WaFn2l-12" value="Information om ljud / bild som&lt;br&gt;&amp;nbsp;ska återges till användaren" style="text;html=1;align=center;verticalAlign=middle;resizable=0;points=[];autosize=1;strokeColor=none;fillColor=none;" vertex="1" parent="1">
          <mxGeometry x="92.5" y="400" width="180" height="40" as="geometry" />
        </mxCell>
        <mxCell id="elAHmINIhqVhR2WaFn2l-14" value="" style="endArrow=none;html=1;rounded=0;exitX=0.27;exitY=-0.018;exitDx=0;exitDy=0;exitPerimeter=0;" edge="1" parent="1" source="SS03M6CejXD36-EVWh4s-15" target="elAHmINIhqVhR2WaFn2l-12">
          <mxGeometry width="50" height="50" relative="1" as="geometry">
            <mxPoint x="290" y="490" as="sourcePoint" />
            <mxPoint x="340" y="440" as="targetPoint" />
          </mxGeometry>
        </mxCell>
        <mxCell id="elAHmINIhqVhR2WaFn2l-15" value="Information om användarens&lt;br&gt;&amp;nbsp;rörelse / position" style="text;html=1;align=center;verticalAlign=middle;resizable=0;points=[];autosize=1;strokeColor=none;fillColor=none;" vertex="1" parent="1">
          <mxGeometry x="290" y="400" width="180" height="40" as="geometry" />
        </mxCell>
        <mxCell id="elAHmINIhqVhR2WaFn2l-16" value="" style="endArrow=none;html=1;rounded=0;exitX=0.493;exitY=-0.054;exitDx=0;exitDy=0;exitPerimeter=0;" edge="1" parent="1" source="elAHmINIhqVhR2WaFn2l-15">
          <mxGeometry width="50" height="50" relative="1" as="geometry">
            <mxPoint x="330" y="380" as="sourcePoint" />
            <mxPoint x="380" y="330" as="targetPoint" />
          </mxGeometry>
        </mxCell>
        <mxCell id="elAHmINIhqVhR2WaFn2l-17" value="" style="endArrow=classic;html=1;rounded=0;entryX=0.691;entryY=-0.018;entryDx=0;entryDy=0;entryPerimeter=0;exitX=0.493;exitY=1.029;exitDx=0;exitDy=0;exitPerimeter=0;" edge="1" parent="1" source="elAHmINIhqVhR2WaFn2l-15" target="SS03M6CejXD36-EVWh4s-15">
          <mxGeometry width="50" height="50" relative="1" as="geometry">
            <mxPoint x="340" y="490" as="sourcePoint" />
            <mxPoint x="390" y="440" as="targetPoint" />
          </mxGeometry>
        </mxCell>
        <mxCell id="elAHmINIhqVhR2WaFn2l-18" value="Information om användarens&lt;br&gt;&amp;nbsp;rörelse / position" style="text;html=1;align=center;verticalAlign=middle;resizable=0;points=[];autosize=1;strokeColor=none;fillColor=none;" vertex="1" parent="1">
          <mxGeometry x="460" y="280" width="180" height="40" as="geometry" />
        </mxCell>
        <mxCell id="elAHmINIhqVhR2WaFn2l-19" value="Information om ljud / bild som&lt;br&gt;&amp;nbsp;ska återges till användaren" style="text;html=1;align=center;verticalAlign=middle;resizable=0;points=[];autosize=1;strokeColor=none;fillColor=none;" vertex="1" parent="1">
          <mxGeometry x="460" y="220" width="180" height="40" as="geometry" />
        </mxCell>
        <mxCell id="elAHmINIhqVhR2WaFn2l-20" value="" style="endArrow=none;html=1;rounded=0;exitX=1;exitY=0.25;exitDx=0;exitDy=0;" edge="1" parent="1" source="SS03M6CejXD36-EVWh4s-6" target="elAHmINIhqVhR2WaFn2l-19">
          <mxGeometry width="50" height="50" relative="1" as="geometry">
            <mxPoint x="320" y="500" as="sourcePoint" />
            <mxPoint x="460" y="240" as="targetPoint" />
          </mxGeometry>
        </mxCell>
        <mxCell id="elAHmINIhqVhR2WaFn2l-21" value="" style="endArrow=classic;html=1;rounded=0;" edge="1" parent="1" source="elAHmINIhqVhR2WaFn2l-19">
          <mxGeometry width="50" height="50" relative="1" as="geometry">
            <mxPoint x="630" y="290" as="sourcePoint" />
            <mxPoint x="680" y="240" as="targetPoint" />
          </mxGeometry>
        </mxCell>
        <mxCell id="elAHmINIhqVhR2WaFn2l-22" value="" style="endArrow=none;html=1;rounded=0;entryX=0;entryY=0.75;entryDx=0;entryDy=0;" edge="1" parent="1" target="SS03M6CejXD36-EVWh4s-9">
          <mxGeometry width="50" height="50" relative="1" as="geometry">
            <mxPoint x="640" y="300" as="sourcePoint" />
            <mxPoint x="680" y="290" as="targetPoint" />
          </mxGeometry>
        </mxCell>
        <mxCell id="elAHmINIhqVhR2WaFn2l-23" value="" style="endArrow=classic;html=1;rounded=0;entryX=1;entryY=0.75;entryDx=0;entryDy=0;" edge="1" parent="1" target="SS03M6CejXD36-EVWh4s-6">
          <mxGeometry width="50" height="50" relative="1" as="geometry">
            <mxPoint x="470" y="300" as="sourcePoint" />
            <mxPoint x="520" y="250" as="targetPoint" />
          </mxGeometry>
        </mxCell>
        <mxCell id="elAHmINIhqVhR2WaFn2l-27" value="" style="endArrow=classic;html=1;rounded=0;entryX=1;entryY=0.5;entryDx=0;entryDy=0;" edge="1" parent="1" source="elAHmINIhqVhR2WaFn2l-25" target="SS03M6CejXD36-EVWh4s-9">
          <mxGeometry width="50" height="50" relative="1" as="geometry">
            <mxPoint x="1000" y="270" as="sourcePoint" />
            <mxPoint x="910" y="220" as="targetPoint" />
          </mxGeometry>
        </mxCell>
        <mxCell id="elAHmINIhqVhR2WaFn2l-25" value="rörelse / position" style="text;html=1;align=center;verticalAlign=middle;resizable=0;points=[];autosize=1;strokeColor=none;fillColor=none;" vertex="1" parent="1">
          <mxGeometry x="865" y="255" width="110" height="30" as="geometry" />
        </mxCell>
        <mxCell id="elAHmINIhqVhR2WaFn2l-29" value="" style="endArrow=none;html=1;rounded=0;" edge="1" parent="1">
          <mxGeometry width="50" height="50" relative="1" as="geometry">
            <mxPoint x="970" y="270" as="sourcePoint" />
            <mxPoint x="1010" y="270" as="targetPoint" />
          </mxGeometry>
        </mxCell>
        <mxCell id="elAHmINIhqVhR2WaFn2l-30" value="" style="endArrow=classic;html=1;rounded=0;" edge="1" parent="1" source="elAHmINIhqVhR2WaFn2l-24">
          <mxGeometry width="50" height="50" relative="1" as="geometry">
            <mxPoint x="830" y="300" as="sourcePoint" />
            <mxPoint x="1010" y="300" as="targetPoint" />
          </mxGeometry>
        </mxCell>
        <mxCell id="elAHmINIhqVhR2WaFn2l-24" value="Ljud / Bild" style="text;html=1;align=center;verticalAlign=middle;resizable=0;points=[];autosize=1;strokeColor=none;fillColor=none;" vertex="1" parent="1">
          <mxGeometry x="880" y="285" width="80" height="30" as="geometry" />
        </mxCell>
        <mxCell id="elAHmINIhqVhR2WaFn2l-32" value="" style="endArrow=none;html=1;rounded=0;exitX=1;exitY=0.75;exitDx=0;exitDy=0;" edge="1" parent="1" source="SS03M6CejXD36-EVWh4s-9">
          <mxGeometry width="50" height="50" relative="1" as="geometry">
            <mxPoint x="830" y="350" as="sourcePoint" />
            <mxPoint x="880" y="300" as="targetPoint" />
          </mxGeometry>
        </mxCell>
      </root>
    </mxGraphModel>
  </diagram>
</mxfile>
